<svg xmlns="http://www.w3.org/2000/svg" enable-background="new 0 0 512 512" viewBox="0 0 512 512" id="alarm-clock"><path fill="#666" d="M491.68,83.68c15.68,15.68,15.68,40.96,0,56.64L472,160l-24-24l-36-36l-28-28l19.68-19.68
	c15.68-15.68,40.96-15.68,56.64,0L491.68,83.68z"></path><path fill="#4D4D4D" d="M484,148l-12,12l-88-88l19.68-19.68c14.56-14.56,37.28-15.6,53.04-3.12c-7.68,1.44-15.04,5.12-21.04,11.12
	l-8.366,8.366c-6.248,6.248-6.248,16.379,0,22.627L484,148z"></path><path fill="#F2BE5C" d="M448,136l-32.8,32.8c-9.52-14.24-20.88-27.04-33.84-38.16L412,100L448,136z"></path><path fill="#E8A63D" d="M448,136l-8,8l-16.686-16.686c-6.248-6.248-16.379-6.248-22.627,0L389.76,138.24
	c-2.72-2.56-5.52-5.12-8.4-7.6L412,100L448,136z"></path><path fill="#6241D9" d="M415.2,168.8C436,199.44,448,236.32,448,276c0,52.88-21.36,100.72-56,135.52
	c-15.36,15.44-33.28,28.24-53.12,37.68C313.76,461.28,285.68,468,256,468s-57.76-6.72-82.88-18.8
	c-19.84-9.52-37.76-22.32-53.12-37.68C85.44,376.72,64,328.88,64,276c0-39.68,12.08-76.56,32.8-107.2
	c9.52-14.24,20.88-27.04,33.84-38.16c27.92-24.08,62.88-40.32,101.36-45.12c7.84-1.04,15.84-1.52,24-1.52s16.16,0.48,24,1.52
	c38.48,4.8,73.44,20.96,101.36,45.12C394.32,141.76,405.68,154.56,415.2,168.8z M408,276c0-83.84-68.16-152-152-152
	c-83.76,0-152,68.16-152,152s68.24,152,152,152C339.84,428,408,359.84,408,276z"></path><path fill="#532DA6" d="M415.2,168.8c-9.52-14.24-20.88-27.04-33.84-38.16c-21.76-18.8-47.68-32.72-76.32-40.24
	c19.2,7.92,36.88,18.88,52.32,32.24c12.96,11.12,24.32,23.92,33.84,38.16C412,191.44,424,228.32,424,268
	c0,52.88-21.36,100.72-56,135.52c-15.36,15.44-33.28,28.24-53.12,37.68C289.76,453.28,261.68,460,232,460
	c-16.8,0-33.2-2.16-48.72-6.32C205.76,462.96,230.24,468,256,468c29.68,0,57.76-6.72,82.88-18.8c19.84-9.44,37.76-22.24,53.12-37.68
	c34.64-34.8,56-82.64,56-135.52C448,236.32,436,199.44,415.2,168.8z"></path><path fill="#666" d="M392,411.52V504h-40l-12.4-53.2l-0.72-1.6C358.72,439.76,376.64,426.96,392,411.52z"></path><path fill="#4D4D4D" d="M392,488v16h-40l-12.4-53.2l-0.72-1.6c3.68-1.76,7.28-3.6,10.8-5.6l8.881,38.211
	c0.842,3.624,4.072,6.189,7.792,6.189H392z"></path><path fill="#E6E6E6" d="M256,124c83.84,0,152,68.16,152,152s-68.16,152-152,152c-83.76,0-152-68.16-152-152S172.24,124,256,124z"></path><path fill="#CECBCA" d="M361.04,166.24C370.64,186.16,376,208.48,376,232c0,83.92-68.08,152-152,152
	c-40.72,0-77.76-16.08-104.96-42.16C143.6,392.8,195.76,428,256,428c83.84,0,152-68.16,152-152C408,232.88,390,193.92,361.04,166.24
	z"></path><path fill="#666" d="M300,8c11.04,0,20,8.96,20,20c0,5.52-2.24,10.56-5.84,14.16S305.52,48,300,48h-20h-48h-20
	c-11.04,0-20-8.96-20-20c0-5.52,2.24-10.56,5.84-14.16C201.44,10.24,206.48,8,212,8H300z"></path><path fill="#4D4D4D" d="M320,28c0,5.52-2.24,10.56-5.84,14.16c-3.6,3.6-8.64,5.84-14.16,5.84h-8c2.48-3.28,4-7.52,4-12
	c0-11.04-8.96-20-20-20h-80c0.56-0.8,1.2-1.52,1.84-2.16C201.44,10.24,206.48,8,212,8h88C311.04,8,320,16.96,320,28z"></path><path fill="#D8330C" d="M272,243.76c11.84,5.92,20,18.16,20,32.24c0,19.84-16.16,36-36,36c-15.6,0-28.96-10-33.92-24
	c-1.36-3.76-2.08-7.76-2.08-12c0-7.44,2.24-14.24,6.08-20c3.52-5.2,8.32-9.44,13.92-12.24c4.8-2.4,10.24-3.76,16-3.76
	C261.76,240,267.2,241.36,272,243.76z"></path><path fill="#C62B0C" d="M292,276c0,19.84-16.16,36-36,36c-13.12,0-24.64-7.12-30.96-17.68c3.44,1.12,7.12,1.68,10.96,1.68
	c19.92,0,36-16.08,36-36c0-6.64-1.84-12.88-4.96-18.24c1.76,0.56,3.36,1.2,4.96,2C283.84,249.68,292,261.92,292,276z"></path><path fill="#F2BE5C" d="M280,48v37.52c-7.84-1.04-15.84-1.52-24-1.52s-16.16,0.48-24,1.52V48H280z"></path><path fill="#E8A63D" d="M280,48v37.52c-2.64-0.32-5.28-0.64-8-0.8V72c0-8.837-7.163-16-16-16h-24v-8H280z"></path><path fill="#2E79BF" d="M272,216v27.76c-4.8-2.4-10.24-3.76-16-3.76c-5.76,0-11.2,1.36-16,3.76V216c0-8.8,7.2-16,16-16
	c4.4,0,8.4,1.76,11.28,4.72C270.24,207.6,272,211.6,272,216z"></path><path fill="#166FA5" d="M272,216v27.76c-2.48-1.28-5.2-2.24-8-2.88V224c0-4.4-1.76-8.4-4.72-11.28C256.4,209.76,252.4,208,248,208
	c-2.32,0-4.56,0.48-6.56,1.44c2.48-5.52,8.08-9.44,14.56-9.44c4.4,0,8.4,1.76,11.28,4.72C270.24,207.6,272,211.6,272,216z"></path><path fill="#2E79BF" d="M184,256h42.08c-3.84,5.76-6.08,12.56-6.08,20c0,4.24,0.72,8.24,2.08,12H184c-4.4,0-8.4-1.76-11.28-4.72
	C169.76,280.4,168,276.4,168,272C168,263.2,175.2,256,184,256z"></path><path fill="#166FA5" d="M222.08,288H184c-4.4,0-8.4-1.76-11.28-4.72C169.76,280.4,168,276.4,168,272c0-6.48,3.92-12.08,9.44-14.56
	c-0.96,2-1.44,4.24-1.44,6.56c0,4.4,1.76,8.4,4.72,11.28c2.88,2.96,6.88,4.72,11.28,4.72h28.24
	C220.56,282.8,221.12,285.44,222.08,288z"></path><path fill="#666" d="M173.12,449.2l-0.72,1.6L160,504h-40v-92.48C135.36,426.88,153.28,439.68,173.12,449.2z"></path><path fill="#4D4D4D" d="M173.12,449.2l-0.72,1.6L160,504h-40v-16h25.655c3.717,0,6.944-2.56,7.79-6.179l8.955-38.301
	C165.92,445.6,169.44,447.44,173.12,449.2z"></path><path fill="#F2BE5C" d="M100,100l30.64,30.64c-12.96,11.12-24.32,23.92-33.84,38.16L64,136L100,100z"></path><path fill="#E8A63D" d="M130.64,130.64c-2.88,2.48-5.68,5.04-8.4,7.6l-10.927-10.926c-6.248-6.248-16.379-6.248-22.627,0L72,144
	l-8-8l36-36L130.64,130.64z"></path><path fill="#666" d="M128,72l-28,28l-36,36l-24,24l-19.68-19.68c-15.68-15.68-15.68-40.96,0-56.64l31.36-31.36
	c15.68-15.68,40.96-15.68,56.64,0L128,72z"></path><path fill="#4D4D4D" d="M128,72l-88,88l-12-12l56.686-56.686c6.248-6.248,6.248-16.379,0-22.627L76.32,60.32
	c-6-6-13.36-9.68-21.04-11.12c15.76-12.48,38.48-11.44,53.04,3.12L128,72z"></path><path d="M256.008,435.992C344.227,435.992,416,364.219,416,276s-71.773-159.992-159.992-159.992S96.016,187.781,96.016,276
		S167.789,435.992,256.008,435.992z M256.008,132.008C335.406,132.008,400,196.602,400,276s-64.594,143.992-143.992,143.992
		S112.016,355.398,112.016,276S176.609,132.008,256.008,132.008z"></path><path d="M184,296h32.866c7.299,14.225,22.088,24,39.142,24c24.258,0,44-19.738,44-44c0-15.41-7.98-28.973-20.008-36.834V216
		c0-6.488-2.531-12.531-6.992-16.867C268.523,194.535,262.484,192,256,192c-13.234,0-24,10.766-24,24v23.176
		c-3.726,2.438-7.076,5.403-9.906,8.824H184c-13.234,0-24,10.766-24,24c0,6.488,2.531,12.531,6.992,16.867
		C171.477,293.465,177.516,296,184,296z M248,216c0-4.41,3.586-8,8-8c2.133,0,4.102,0.816,5.703,2.449
		C263.18,211.895,264,213.863,264,216v16.763c-2.596-0.479-5.26-0.763-7.992-0.763c-2.738,0-5.407,0.285-8.008,0.766V216z
		 M256.008,248c15.438,0,28,12.562,28,28s-12.562,28-28,28s-28-12.562-28-28S240.57,248,256.008,248z M184,264h29.714
		c-1.086,3.821-1.706,7.836-1.706,12c0,1.35,0.083,2.681,0.203,4H184c-2.133,0-4.102-0.816-5.703-2.449
		C176.82,276.105,176,274.137,176,272C176,267.59,179.586,264,184,264z"></path><path d="M34.344,165.656C35.906,167.219,37.953,168,40,168s4.094-0.781,5.656-2.344L64,147.313l22.588,22.591
		C67.244,200.68,56.008,237.043,56.008,276c0,53.759,21.361,102.595,55.992,138.57V504c0,4.418,3.578,8,8,8h40
		c3.719,0,6.945-2.562,7.789-6.184l10.604-45.499c23.877,10.092,50.105,15.679,77.615,15.679c27.504,0,53.727-5.585,77.6-15.674
		l10.603,45.495c0.844,3.621,4.07,6.184,7.789,6.184h40c4.422,0,8-3.582,8-8v-89.42c34.635-35.977,56-84.816,56-138.58
		c0-38.958-11.237-75.323-30.583-106.101L448,147.313l18.343,18.343c1.562,1.562,3.609,2.344,5.656,2.344s4.094-0.781,5.656-2.344
		l19.719-19.715c18.711-18.715,18.711-49.168,0-67.883l-31.438-31.43C456.875,37.562,444.82,32.57,432,32.57
		s-24.875,4.992-33.938,14.059l-19.719,19.715c-1.5,1.5-2.344,3.535-2.344,5.656s0.844,4.156,2.344,5.656L400.688,100
		l-19.886,19.886C354.468,98.792,322.727,84.204,288,78.595V56h12c15.438,0,28-12.562,28-28S315.438,0,300,0h-88
		c-15.438,0-28,12.562-28,28s12.562,28,28,28h12v22.597c-34.726,5.611-66.466,20.2-92.797,41.293L111.312,100l22.344-22.344
		c1.5-1.5,2.344-3.535,2.344-5.656s-0.844-4.156-2.344-5.656l-19.719-19.715C104.875,37.562,92.82,32.57,80,32.57
		s-24.875,4.992-33.938,14.059l-31.438,31.43c-18.711,18.715-18.711,49.168,0,67.883L34.344,165.656z M153.648,496H128v-66.478
		c10.94,9.137,22.878,17.102,35.607,23.763L153.648,496z M384,496h-25.648l-9.957-42.71c12.728-6.661,24.666-14.624,35.605-23.76
		V496z M395.312,72l14.062-14.059c12.094-12.086,33.156-12.086,45.25,0l31.438,31.43c12.477,12.477,12.477,32.781,0,45.258
		L472,148.688L395.312,72z M412,111.312L436.688,136l-20.448,20.45c-7.001-9.359-14.836-18.05-23.333-26.045L412,111.312z M212,40
		c-6.617,0-12-5.383-12-12s5.383-12,12-12h88c6.617,0,12,5.383,12,12s-5.383,12-12,12H212z M272,56v20.701
		c-5.282-0.42-10.604-0.697-15.992-0.697c-5.394,0-10.721,0.277-16.008,0.698V56H272z M256.008,92.004
		C357.461,92.004,440,174.543,440,276s-82.539,183.996-183.992,183.996c-101.461,0-184-82.539-184-183.996
		S154.547,92.004,256.008,92.004z M119.097,130.41c-8.497,7.995-16.333,16.686-23.333,26.045L75.312,136L100,111.312L119.097,130.41
		z M25.938,89.371l31.438-31.43C63.422,51.898,71.453,48.57,80,48.57s16.578,3.328,22.625,9.371L116.688,72L40,148.688
		l-14.062-14.059C13.461,122.152,13.461,101.848,25.938,89.371z"></path><path d="M480.406 106.34c3.125-3.125 3.125-8.188 0-11.312l-8.289-8.281c-3.125-3.117-8.188-3.125-11.312.008-3.125 3.125-3.125 8.188 0 11.312l8.289 8.281c1.562 1.559 3.609 2.34 5.656 2.34S478.844 107.906 480.406 106.34zM448.969 63.602c-9.055-9.062-24.867-9.078-33.938 0-3.125 3.125-3.125 8.188 0 11.312s8.188 3.125 11.312 0c3.039-3.039 8.273-3.051 11.305-.004l4.695 4.695c1.562 1.562 3.609 2.344 5.656 2.344s4.094-.781 5.656-2.344c3.125-3.125 3.125-8.188 0-11.312L448.969 63.602zM256 168c4.422 0 8-3.582 8-8v-8c0-4.418-3.578-8-8-8s-8 3.582-8 8v8C248 164.418 251.578 168 256 168zM256 384c-4.422 0-8 3.582-8 8v8c0 4.418 3.578 8 8 8s8-3.582 8-8v-8C264 387.582 260.422 384 256 384zM132 284h8c4.422 0 8-3.582 8-8s-3.578-8-8-8h-8c-4.422 0-8 3.582-8 8S127.578 284 132 284zM372 284h8c4.422 0 8-3.582 8-8s-3.578-8-8-8h-8c-4.422 0-8 3.582-8 8S367.578 284 372 284zM168.32 199.633c1.562 1.562 3.609 2.344 5.656 2.344s4.094-.781 5.656-2.344c3.125-3.125 3.125-8.188 0-11.312l-5.656-5.656c-3.125-3.125-8.188-3.125-11.312 0s-3.125 8.188 0 11.312L168.32 199.633zM338.023 369.336c1.562 1.562 3.609 2.344 5.656 2.344s4.094-.781 5.656-2.344c3.125-3.125 3.125-8.188 0-11.312l-5.656-5.656c-3.125-3.125-8.188-3.125-11.312 0s-3.125 8.188 0 11.312L338.023 369.336zM338.023 201.977c2.047 0 4.094-.781 5.656-2.344l5.656-5.656c3.125-3.125 3.125-8.188 0-11.312s-8.188-3.125-11.312 0l-5.656 5.656c-3.125 3.125-3.125 8.188 0 11.312C333.93 201.195 335.977 201.977 338.023 201.977zM168.32 352.367l-5.656 5.656c-3.125 3.125-3.125 8.188 0 11.312 1.562 1.562 3.609 2.344 5.656 2.344s4.094-.781 5.656-2.344l5.656-5.656c3.125-3.125 3.125-8.188 0-11.312S171.445 349.242 168.32 352.367z"></path></svg>