<svg xmlns="http://www.w3.org/2000/svg" enable-background="new 0 0 47.5 47.5" viewBox="0 0 47.5 47.5" id="books"><defs><clipPath id="a"><path d="M0 38h38V0H0v38Z"></path></clipPath></defs><g clip-path="url(#a)" transform="matrix(1.25 0 0 -1.25 0 47.5)"><path fill="#553788" d="M0 0c0-2.209-.791-4-3-4h-7c-4 0-4 14 0 14h7c2.209 0 3-1.791 3-4V0Z" transform="translate(16 6)"></path><path fill="#9266cc" d="M0 0h-1v10h1a1 1 0 1 1 0 2h-24c-4 0-4-14 0-14H0a1 1 0 1 1 0 2" transform="translate(35 4)"></path><path fill="#ccd6dd" d="M0 0h-23.172c-2 0-2 10 0 10H0C1.104 10 1.104 0 0 0" transform="translate(35.172 4)"></path><path fill="#99aab5" d="M0 0h23.35c-.135 1.175-.361 2-.678 2H-.5c-1.651 0-1.938-6.808-.863-9.187C-1.755-4.229-1.301 0 0 0" transform="translate(12.5 12)"></path><path fill="#269" d="M0 0a4 4 0 0 0-4-4h-4c-4 0-4 11 0 11h4a4 4 0 0 0 4-4V0Z" transform="translate(13 29)"></path><path fill="#55acee" d="M0 0h-1v7h1a1 1 0 1 1 0 2h-24c-4 0-4-11 0-11H0a1 1 0 1 1 0 2" transform="translate(32 27)"></path><path fill="#ccd6dd" d="M0 0h-23.172c-2 0-2 7 0 7H0c1.104 0 1.104-7 0-7" transform="translate(32.172 27)"></path><path fill="#99aab5" d="M0 0h23.925c-.114 1.125-.364 2-.753 2H0C-1.193 2-1.669-.489-1.438-2.5-1.282-1.142-.807 0 0 0" transform="translate(9 32)"></path><path fill="#f4900c" d="M0 0a4 4 0 0 0-4-4h-10c-4 0-4 9 0 9h10a4 4 0 0 0 4-4V0Z" transform="translate(21 20)"></path><path fill="#ffac33" d="M0 0h-1v5h1a1 1 0 1 1 0 2h-20c-4 0-4-9 0-9H0a1 1 0 1 1 0 2" transform="translate(36 18)"></path><path fill="#ccd6dd" d="M0 0h-19.172c-2 0-2 5 0 5H0c1.104 0 1.104-5 0-5" transform="translate(36.172 18)"></path><path fill="#99aab5" d="M0 0h19.984c-.064 1.062-.334 2-.812 2H0C-1.274 2-1.733-.027-1.383-1.5-1.185-.661-.726 0 0 0" transform="translate(17 21)"></path></g></svg>