<svg xmlns="http://www.w3.org/2000/svg" enable-background="new 0 0 64 64" viewBox="0 0 64 64" id="coffee"><g><g><g><ellipse cx="29.2" cy="57.06" fill="#5980d0" rx="26.32" ry="6.19"></ellipse><path fill="#42210b" d="M29.2,64c-13.12,0-27.07-2.43-27.07-6.94s13.95-6.94,27.07-6.94s27.07,2.43,27.07,6.94S42.33,64,29.2,64z
				 M29.2,51.62c-15.84,0-25.57,3.17-25.57,5.44s9.73,5.44,25.57,5.44s25.57-3.17,25.57-5.44S45.05,51.62,29.2,51.62z"></path></g><g><ellipse cx="29.2" cy="57.06" fill="#455da1" rx="15.23" ry="3.15"></ellipse></g></g><g><g><g><g><path fill="#d7d7d8" d="M60.92,34.51c-1.02-4.01-5.65-6.09-9.53-5.78c-3.75,0.3-6.89,2.29-9.42,3.89l1.96,2.73
						c2.72-1.72,5.19-3.17,7.87-3.38c2.36-0.19,5.27,1.05,5.81,3.19c0.54,2.13-1.37,4.38-3.54,5.51c-1.35,0.7-2.84,1.16-4.43,1.65
						c-1.42,0.44-2.9,0.9-4.31,1.55c-1.83,0.84-3.43,1.95-4.98,3.02c-0.66,0.46-1.3,0.89-1.95,1.31l3.98,1.38
						c0.01-0.01,0.03-0.02,0.04-0.03c1.5-1.04,2.93-2.02,4.49-2.74c1.21-0.56,2.52-0.96,3.9-1.39c1.66-0.51,3.37-1.04,4.98-1.88
						C59.05,41.86,61.91,38.4,60.92,34.51z"></path><path fill="#42210b" d="M42.34,50.33c-0.08,0-0.15-0.01-0.22-0.03l-3.98-1.38c-0.27-0.09-0.46-0.33-0.5-0.62
						c-0.03-0.29,0.1-0.56,0.34-0.72c0.64-0.41,1.27-0.84,1.93-1.29c1.59-1.1,3.22-2.22,5.1-3.09c1.45-0.67,2.95-1.13,4.39-1.58
						c1.56-0.48,3.02-0.93,4.31-1.6c1.86-0.96,3.6-2.92,3.16-4.65c-0.44-1.75-3.01-2.8-5.02-2.63c-2.51,0.2-4.9,1.6-7.53,3.27
						c-0.34,0.21-0.78,0.13-1.01-0.2l-1.96-2.73c-0.12-0.17-0.17-0.38-0.13-0.58c0.04-0.2,0.16-0.38,0.33-0.49
						c2.59-1.65,5.82-3.69,9.76-4.01c4.2-0.32,9.2,1.95,10.32,6.34c1.09,4.29-1.99,8.06-5.53,9.89c-1.67,0.87-3.42,1.41-5.1,1.93
						c-1.38,0.43-2.65,0.82-3.8,1.35c-1.51,0.7-2.9,1.66-4.38,2.68C42.7,50.27,42.52,50.33,42.34,50.33z M40.07,47.99l2.19,0.76
						c1.45-1,2.81-1.92,4.33-2.62c1.24-0.57,2.56-0.98,3.95-1.41c1.67-0.52,3.35-1.03,4.9-1.84c3.01-1.56,5.65-4.69,4.76-8.18
						c0,0,0,0,0,0c-0.92-3.63-5.17-5.51-8.74-5.21c-3.25,0.26-6.07,1.89-8.41,3.35l1.08,1.51c2.57-1.61,4.96-2.91,7.61-3.12
						c2.67-0.2,5.94,1.17,6.6,3.76c0.64,2.51-1.49,5.1-3.92,6.36c-1.41,0.73-2.94,1.2-4.55,1.7c-1.41,0.44-2.85,0.88-4.22,1.51
						c-1.76,0.81-3.33,1.9-4.86,2.95C40.54,47.67,40.31,47.83,40.07,47.99z"></path></g><g><path fill="#d7d7d8" d="M8.23,25.96c0,0,0.69,16.91,7.36,26.17c2.26,3.14,6.26,4.92,10.44,4.92h6.38c4.18,0,8.18-1.79,10.44-4.92
						c6.67-9.27,7.35-26.17,7.35-26.17H8.23z"></path><path fill="#42210b" d="M32.4,57.81h-6.38c-4.56,0-8.69-1.96-11.05-5.24c-6.72-9.34-7.47-25.88-7.5-26.58
						c-0.01-0.2,0.07-0.4,0.21-0.55s0.34-0.23,0.54-0.23H50.2c0.2,0,0.4,0.08,0.54,0.23s0.22,0.35,0.21,0.55
						c-0.03,0.7-0.77,17.24-7.5,26.58C41.09,55.85,36.96,57.81,32.4,57.81z M9.03,26.71c0.23,3.41,1.51,17.13,7.17,24.99
						c2.05,2.84,5.81,4.61,9.83,4.61h6.38c4.02,0,7.78-1.77,9.83-4.61c5.66-7.86,6.93-21.58,7.17-24.99H9.03z"></path></g><g><path fill="#d7d7d8" d="M22.22,18.57c-4.17-1.83-2.96-5.9-2.96-5.9c0.99-4.7-2.69-7.59-2.69-7.59s2.45-0.25,4.22,1.9
						c1.06,1.28,1.34,3.03,0.96,4.65C21.33,13.45,20.93,16.44,22.22,18.57"></path><path fill="#42210b" d="M22.22,19.32c-0.1,0-0.2-0.02-0.3-0.06c-3.78-1.66-3.86-5.17-3.37-6.8c0.86-4.13-2.4-6.76-2.43-6.79
						c-0.24-0.19-0.34-0.51-0.26-0.8c0.09-0.29,0.34-0.51,0.65-0.54c0.12-0.01,2.87-0.26,4.87,2.17c1.15,1.39,1.56,3.37,1.11,5.3
						c-0.36,1.55-0.8,4.44,0.38,6.39c0.17,0.28,0.14,0.64-0.08,0.88C22.64,19.23,22.43,19.32,22.22,19.32z M18.6,6.21
						c1,1.43,2.01,3.7,1.39,6.61c-0.04,0.15-0.59,2.14,0.73,3.75c-0.3-1.77-0.04-3.65,0.3-5.12c0.34-1.47,0.04-2.97-0.81-4
						C19.71,6.83,19.14,6.45,18.6,6.21z"></path></g><g><path fill="#d7d7d8" d="M40.87,18.57c-4.17-1.83-2.96-5.9-2.96-5.9c0.99-4.7-2.69-7.59-2.69-7.59s2.45-0.25,4.22,1.9
						c1.06,1.28,1.34,3.03,0.96,4.65C39.97,13.45,39.58,16.44,40.87,18.57"></path><path fill="#42210b" d="M40.87,19.32c-0.1,0-0.2-0.02-0.3-0.06c-3.78-1.66-3.86-5.17-3.37-6.8c0.86-4.13-2.4-6.76-2.43-6.79
						c-0.24-0.19-0.34-0.51-0.26-0.8c0.09-0.29,0.34-0.51,0.65-0.54c0.12-0.01,2.87-0.26,4.87,2.17c1.15,1.39,1.56,3.37,1.11,5.3
						c-0.36,1.55-0.8,4.44,0.38,6.39c0.17,0.28,0.14,0.64-0.08,0.88C41.29,19.23,41.08,19.32,40.87,19.32z M37.25,6.21
						c1,1.43,2.01,3.7,1.39,6.61c-0.04,0.15-0.59,2.14,0.73,3.75c-0.3-1.77-0.04-3.65,0.3-5.12c0.34-1.47,0.04-2.97-0.81-4
						C38.36,6.83,37.79,6.45,37.25,6.21z"></path></g><g><path fill="#d7d7d8" d="M32.01,18.57c-5.5-2.41-3.9-7.79-3.9-7.79c1.3-6.2-3.55-10.02-3.55-10.02s3.23-0.32,5.57,2.51
						c1.4,1.69,1.77,4,1.27,6.14C30.83,11.81,30.31,15.76,32.01,18.57"></path><path fill="#42210b" d="M32.01,19.32c-0.1,0-0.2-0.02-0.3-0.06c-6.03-2.65-4.33-8.63-4.32-8.69c1.17-5.62-3.25-9.18-3.29-9.22
						c-0.24-0.19-0.34-0.5-0.26-0.8c0.09-0.29,0.34-0.51,0.65-0.54C24.63,0,28.15-0.31,30.7,2.79c1.47,1.78,2,4.32,1.42,6.78
						c-0.49,2.08-1.07,5.96,0.53,8.6c0.17,0.28,0.14,0.64-0.08,0.88C32.42,19.23,32.22,19.32,32.01,19.32z M26.56,1.75
						c1.42,1.77,3.17,4.94,2.28,9.18c-0.06,0.21-0.97,3.49,1.6,5.78c-0.64-2.52-0.28-5.33,0.22-7.48c0.47-2.02,0.06-4.07-1.11-5.49
						C28.6,2.59,27.49,2.03,26.56,1.75z"></path></g><g><path fill="#ff2727" d="M33.14,35.62c-1.11,0-2.16,0.3-3.06,0.82c-0.9-0.52-1.94-0.82-3.06-0.82c-3.38,0-6.12,2.74-6.12,6.12
						c0,7.14,9.18,11.03,9.18,11.03s9.18-3.89,9.18-11.03C39.26,38.36,36.52,35.62,33.14,35.62"></path><path fill="#42210b" d="M30.08,53.52c-0.1,0-0.2-0.02-0.29-0.06c-0.39-0.17-9.64-4.17-9.64-11.72c0-3.79,3.08-6.87,6.87-6.87
						c1.06,0,2.11,0.25,3.06,0.72c0.95-0.47,2-0.72,3.06-0.72c3.79,0,6.87,3.08,6.87,6.87c0,7.55-9.24,11.56-9.64,11.72
						C30.28,53.5,30.18,53.52,30.08,53.52z M27.02,36.37c-2.96,0-5.37,2.41-5.37,5.37c0,5.88,6.91,9.49,8.43,10.21
						c1.52-0.72,8.43-4.35,8.43-10.21c0-2.96-2.41-5.37-5.37-5.37c-0.94,0-1.87,0.25-2.69,0.72c-0.23,0.14-0.52,0.13-0.75,0
						C28.89,36.62,27.96,36.37,27.02,36.37z"></path></g></g></g></g><g><g><ellipse cx="29.21" cy="25.96" fill="#9a4d4d" rx="20.98" ry="4.07"></ellipse><path fill="#42210b" d="M29.21,30.78c-7.52,0-21.73-1.01-21.73-4.82c0-3.81,14.21-4.82,21.73-4.82s21.73,1.01,21.73,4.82
				C50.94,29.77,36.73,30.78,29.21,30.78z M29.21,22.64c-13.09,0-20.23,2.19-20.23,3.32c0,1.13,7.14,3.32,20.23,3.32
				c13.09,0,20.23-2.19,20.23-3.32C49.44,24.83,42.3,22.64,29.21,22.64z"></path></g><g><path fill="#9d9d9d" d="M50.2,25.96c0,0.65-0.79,1.27-2.19,1.81c-3.44-1.35-10.57-2.27-18.8-2.27s-15.36,0.92-18.79,2.27
				c-1.4-0.55-2.19-1.15-2.19-1.81c0-2.26,9.39-4.07,20.98-4.07C40.8,21.89,50.2,23.71,50.2,25.96z"></path><path fill="#42210b" d="M48.01,28.52c-0.09,0-0.19-0.02-0.27-0.05c-3.43-1.34-10.7-2.21-18.52-2.21c-7.83,0-15.09,0.87-18.52,2.21
				c-0.18,0.07-0.37,0.07-0.55,0c-0.66-0.26-2.66-1.04-2.66-2.5c0-3.81,14.21-4.82,21.73-4.82c7.52,0,21.74,1.01,21.74,4.82
				c0,1-0.87,1.82-2.67,2.51C48.19,28.5,48.1,28.52,48.01,28.52z M29.21,24.75c7.91,0,15.06,0.84,18.79,2.21
				c1.17-0.49,1.45-0.89,1.45-1c0-1.13-7.14-3.32-20.24-3.32c-13.09,0-20.23,2.19-20.23,3.32c0,0.11,0.27,0.5,1.45,1
				C14.15,25.6,21.29,24.75,29.21,24.75z"></path></g></g></g></svg>