<svg xmlns="http://www.w3.org/2000/svg" viewBox="0 0 24 24" id="message"><g><g><path fill="none" d="M0 0h24v24H0z"></path><path fill="#0ba1e6" d="M1 12C1 4 4 1 12 1s11 3 11 11-3 11-11 11S1 20 1 12"></path><path fill="#fff" d="M17 7.32H7A1.68 1.68 0 0 0 5.28 9v6A1.68 1.68 0 0 0 7 16.68h1v1.92l1.21-1.92H17A1.68 1.68 0 0 0 18.72 15V9A1.68 1.68 0 0 0 17 7.32Z"></path><path fill="#005db1" d="M8.4 13.2A1.2 1.2 0 1 1 9.6 12a1.2 1.2 0 0 1-1.2 1.2Zm3.6 0a1.2 1.2 0 1 1 1.2-1.2 1.2 1.2 0 0 1-1.2 1.2Zm3.6 0a1.2 1.2 0 1 1 1.2-1.2 1.2 1.2 0 0 1-1.2 1.2Z"></path></g></g></svg>