<svg xmlns="http://www.w3.org/2000/svg" enable-background="new 0 0 64 64" viewBox="0 0 64 64" id="weightlifting"><path fill="#1d549c" d="M38,38l3,20h0c1.657,0,3,1.343,3,3v1h-7l-5-20l-5,20h-7v-1c0-1.657,1.343-3,3-3h0l3-20"></path><path fill="#2b6bb2" d="M37,62h7v-1c0-0.76-0.292-1.447-0.758-1.976C43.16,59.018,43.083,59,43,59l-0.038-0.253
		C42.435,58.288,41.754,58,41,58l-2.85-19H28l-3,20c-1.657,0-3,1.343-3,3h5l5-20L37,62z"></path><rect width="8" height="14" x="2" y="2" fill="#b5b5b5"></rect><rect width="8" height="12" x="2" y="2" fill="#c9c9c9"></rect><rect width="44" height="2" x="10" y="8" fill="#5a5b5d"></rect><polygon fill="#f6bb95" points="24 26 18 19 15.587 10.957 19.543 10.267 22 16 27 20 37 20 42 16 44.457 10.267 48.4 11 46 19 40 26"></polygon><path fill="#52a04f" d="M35,20h2v0.394c0,2.253,1.126,4.356,3,5.606l0,0l-1,12H25l-1-12l0,0c1.874-1.249,3-3.353,3-5.606V20
		h2H35z"></path><path fill="#6db569" d="M31,35h8.25L40,26c-1.874-1.25-3-3.353-3-5.606V20h-2h-6h-2v0.394V31C27,33.209,28.791,35,31,35z"></path><path fill="#d69578" d="M35,19.196V20c0,1.657-1.343,3-3,3h0c-1.657,0-3-1.343-3-3v-0.804"></path><path fill="#e8a989" d="M32,6L32,6c-3.314,0-6,2.686-6,6v2c0,3.314,2.686,6,6,6h0c3.314,0,6-2.686,6-6v-2
		C38,8.686,35.314,6,32,6z"></path><path fill="#f6bb95" d="M32.5,6.025C29.421,6.28,27,8.855,27,12v2c0,3.145,2.421,5.72,5.5,5.975
		C35.579,19.72,38,17.145,38,14v-2C38,8.855,35.579,6.28,32.5,6.025z"></path><rect width="2" height="14" x="5" y="2" fill="#b5b5b5"></rect><path fill="#e8a989" d="M48 7h-2c-1.105 0-2 .895-2 2v0c0 1.105.895 2 2 2h2c1.105 0 2-.895 2-2v0C50 7.895 49.105 7 48 7zM18 7h-2c-1.105 0-2 .895-2 2v0c0 1.105.895 2 2 2h2c1.105 0 2-.895 2-2v0C20 7.895 19.105 7 18 7z"></path><path fill="#3f4042" d="M34,10c0.613,1.226,1.866,2,3.236,2H38c0-3.314-2.686-6-6-6s-6,2.686-6,6h4.762
		C32.133,12,33.386,11.226,34,10z"></path><path fill="#5a5b5d" d="M32.5,6.025C29.421,6.28,27,8.855,27,12h3.762c1.371,0,2.624-0.774,3.238-2
		c0.613,1.226,1.866,2,3.236,2H38C38,8.855,35.579,6.28,32.5,6.025z"></path><path fill="#e8a989" d="M34.979,20.203C34.101,20.707,33.086,21,32,21c-0.67,0-1.313-0.115-1.915-0.318
		c0.273,1.167,1.222,2.066,2.415,2.267C33.851,22.722,34.885,21.595,34.979,20.203z"></path><rect width="8" height="14" x="54" y="2" fill="#b5b5b5"></rect><rect width="8" height="12" x="54" y="2" fill="#c9c9c9"></rect><rect width="2" height="14" x="57" y="2" fill="#b5b5b5"></rect><path fill="#969696" d="M20,61v1h7l1-4h-5C21.343,58,20,59.343,20,61z"></path><path fill="#b5b5b5" d="M23,58c-1.657,0-3,1.343-3,3h1.908c1.817,0,3.402-1.237,3.842-3v0H23z"></path><path fill="#969696" d="M44,61v1h-7l-1-4h5C42.657,58,44,59.343,44,61z"></path><path fill="#b5b5b5" d="M41,58c1.657,0,3,1.343,3,3h-1.908c-1.817,0-3.402-1.237-3.842-3v0H41z"></path></svg>